<svg id="visual" viewBox="0 0 900 450" width="900" height="450" xmlns="http://www.w3.org/2000/svg" xmlns:xlink="http://www.w3.org/1999/xlink" version="1.1"><path d="M0 353L21.5 341.7C43 330.3 86 307.7 128.8 303.7C171.7 299.7 214.3 314.3 257.2 325.7C300 337 343 345 385.8 340.5C428.7 336 471.3 319 514.2 321.2C557 323.3 600 344.7 642.8 347.8C685.7 351 728.3 336 771.2 334.5C814 333 857 345 878.5 351L900 357L900 451L878.5 451C857 451 814 451 771.2 451C728.3 451 685.7 451 642.8 451C600 451 557 451 514.2 451C471.3 451 428.7 451 385.8 451C343 451 300 451 257.2 451C214.3 451 171.7 451 128.8 451C86 451 43 451 21.5 451L0 451Z" fill="#0065fc" stroke-linecap="round" stroke-linejoin="miter"></path></svg>